<svg xmlns="http://www.w3.org/2000/svg" xmlns:xlink="http://www.w3.org/1999/xlink" width="2000" zoomAndPan="magnify" viewBox="0 0 1500 1499.999933" height="2000" preserveAspectRatio="xMidYMid meet" version="1.0"><defs><g/><clipPath id="98684216ab"><path d="M 0.0078125 584.230469 L 1499.992188 584.230469 L 1499.992188 941.148438 L 0.0078125 941.148438 Z M 0.0078125 584.230469 " clip-rule="nonzero"/></clipPath><clipPath id="1a1b26a513"><rect x="0" width="183" y="0" height="280"/></clipPath><clipPath id="15a1d2e461"><path d="M 0.601562 37 L 180 37 L 180 234 L 0.601562 234 Z M 0.601562 37 " clip-rule="nonzero"/></clipPath><clipPath id="50cb2cc1aa"><rect x="0" width="181" y="0" height="280"/></clipPath><clipPath id="38ba973668"><path d="M 979 702 L 1068 702 L 1068 886 L 979 886 Z M 979 702 " clip-rule="nonzero"/></clipPath><clipPath id="6e906bf9e4"><path d="M 938.363281 727.605469 L 1059.972656 682.371094 L 1118.542969 839.828125 L 996.933594 885.066406 Z M 938.363281 727.605469 " clip-rule="nonzero"/></clipPath><clipPath id="a220c6fa83"><path d="M 938.363281 727.605469 L 1059.972656 682.371094 L 1118.542969 839.828125 L 996.933594 885.066406 Z M 938.363281 727.605469 " clip-rule="nonzero"/></clipPath><clipPath id="bfa6ddd47e"><path d="M 486.257812 891.109375 L 1013.742188 891.109375 L 1013.742188 977.980469 L 486.257812 977.980469 Z M 486.257812 891.109375 " clip-rule="nonzero"/></clipPath><clipPath id="20da4ec385"><path d="M 0.257812 0.109375 L 527.742188 0.109375 L 527.742188 86.980469 L 0.257812 86.980469 Z M 0.257812 0.109375 " clip-rule="nonzero"/></clipPath><clipPath id="349ec2f7db"><rect x="0" width="528" y="0" height="87"/></clipPath><clipPath id="c5cfbdf63b"><rect x="0" width="182" y="0" height="280"/></clipPath><clipPath id="388c6d3ce9"><rect x="0" width="183" y="0" height="280"/></clipPath><clipPath id="1902fed4e4"><path d="M 1 36 L 177.839844 36 L 177.839844 234 L 1 234 Z M 1 36 " clip-rule="nonzero"/></clipPath><clipPath id="fa77c70b47"><rect x="0" width="178" y="0" height="280"/></clipPath><clipPath id="4f568062dd"><rect x="0" width="259" y="0" height="52"/></clipPath></defs><g clip-path="url(#98684216ab)"><path stroke-linecap="butt" transform="matrix(0.75, 0, 0, 0.75, 0.00706157, 584.229074)" fill="none" stroke-linejoin="miter" d="M 0.00100124 0.0018601 L 1999.980212 0.0018601 L 1999.980212 475.892496 L 0.00100124 475.892496 Z M 0.00100124 0.0018601 " stroke="#ffffff" stroke-width="32" stroke-opacity="1" stroke-miterlimit="4"/></g><g transform="matrix(1, 0, 0, 1, 1009, 610)"><g clip-path="url(#1a1b26a513)"><g fill="#000000" fill-opacity="1"><g transform="translate(4.726196, 222.924173)"><g><path d="M 163.957031 -56.488281 C 165.085938 -51.59375 166.261719 -46.28125 167.484375 -40.550781 C 168.707031 -34.8125 169.835938 -29.257812 170.871094 -23.890625 C 171.886719 -18.628906 172.761719 -14.203125 173.5 -10.613281 C 174.214844 -7.132812 174.644531 -5.089844 174.796875 -4.492188 L 164.640625 -1.953125 L 174.703125 -4.828125 C 175.574219 -1.792969 175.449219 1.027344 174.332031 3.632812 C 173.300781 6.035156 171.636719 7.855469 169.34375 9.09375 C 167.640625 10.007812 165.796875 10.464844 163.804688 10.464844 L 93.761719 10.464844 C 92.140625 10.464844 90.601562 10.140625 89.144531 9.492188 C 87.382812 8.710938 85.921875 7.546875 84.761719 6 C 83.226562 3.953125 82.460938 1.582031 82.460938 -1.117188 L 92.925781 -1.117188 L 83.125 2.558594 C 82.40625 0.632812 81.480469 -2.789062 80.351562 -7.707031 C 79.339844 -12.132812 78.183594 -17.023438 76.890625 -22.378906 C 75.609375 -27.695312 74.421875 -32.40625 73.324219 -36.511719 C 72.265625 -40.492188 71.582031 -42.9375 71.277344 -43.851562 C 70.976562 -44.75 70.636719 -45.417969 70.257812 -45.851562 C 70.566406 -45.5 70.96875 -45.164062 71.464844 -44.835938 C 72.644531 -44.066406 73.972656 -43.621094 75.453125 -43.5 C 77.386719 -43.335938 79.183594 -43.746094 80.84375 -44.726562 C 81.859375 -45.324219 82.675781 -46.0625 83.300781 -46.9375 L 82.800781 -46.234375 L 82.1875 -45.621094 C 83.277344 -46.710938 84.019531 -47.902344 84.417969 -49.203125 C 84.460938 -49.347656 84.492188 -49.464844 84.511719 -49.558594 C 84.507812 -49.535156 84.5 -49.484375 84.488281 -49.40625 C 84.382812 -48.648438 84.308594 -47.445312 84.273438 -45.804688 L 83.992188 -32.707031 C 83.894531 -27.84375 83.746094 -24.1875 83.542969 -21.734375 L 83.53125 -21.589844 L 83.511719 -21.449219 C 83.164062 -18.304688 82.902344 -15.023438 82.726562 -11.601562 C 82.550781 -8.152344 82.460938 -4.75 82.460938 -1.394531 C 82.460938 1.003906 81.894531 3.144531 80.761719 5.035156 C 79.730469 6.753906 78.34375 8.09375 76.609375 9.0625 C 74.921875 9.996094 73.105469 10.464844 71.160156 10.464844 L 8.371094 10.464844 C 4.644531 10.464844 1.644531 9.039062 -0.636719 6.1875 C -2.351562 4.046875 -3.210938 1.515625 -3.210938 -1.394531 L -3.210938 -1.53125 L -3.066406 -6.972656 L -2.789062 -19.351562 L -2.507812 -32.316406 C -2.417969 -36.15625 -2.371094 -38.5 -2.371094 -39.347656 L -2.371094 -113.855469 C -2.1875 -123.867188 -2.234375 -133.816406 -2.507812 -143.703125 C -2.789062 -153.84375 -2.929688 -163.988281 -2.929688 -174.128906 C -2.929688 -177.042969 -2.074219 -179.570312 -0.359375 -181.714844 C 1.921875 -184.566406 4.925781 -185.992188 8.652344 -185.992188 L 74.785156 -185.992188 C 76.621094 -185.992188 78.34375 -185.585938 79.957031 -184.78125 C 81.75 -183.882812 83.210938 -182.59375 84.332031 -180.910156 C 85.6875 -178.875 86.367188 -176.523438 86.367188 -173.851562 L 86.367188 -172.5625 L 86.054688 -171.3125 C 86.039062 -171.242188 85.953125 -169.554688 85.796875 -166.25 C 85.609375 -162.203125 85.375 -157.832031 85.09375 -153.132812 C 84.828125 -148.691406 84.695312 -145.179688 84.695312 -142.597656 L 74.230469 -142.597656 L 84.675781 -143.210938 C 84.867188 -139.9375 85.011719 -136.472656 85.109375 -132.828125 C 85.117188 -132.523438 85.125 -132.339844 85.136719 -132.28125 C 85.027344 -132.84375 84.777344 -133.457031 84.378906 -134.125 C 83.328125 -135.898438 81.789062 -137.152344 79.765625 -137.886719 C 77.800781 -138.601562 75.875 -138.644531 73.988281 -138.015625 L 74.371094 -138.140625 L 74.761719 -138.238281 C 73.996094 -138.046875 73.324219 -137.714844 72.746094 -137.246094 C 72.449219 -137.003906 72.246094 -136.792969 72.136719 -136.613281 C 72.6875 -137.519531 73.113281 -138.46875 73.414062 -139.464844 L 83.4375 -136.457031 L 73.175781 -138.511719 C 73.433594 -139.808594 74.132812 -142.261719 75.269531 -145.875 L 78.75 -157.019531 L 82.523438 -169.03125 C 83.695312 -172.730469 84.539062 -175.53125 85.0625 -177.441406 L 85.507812 -179.082031 L 86.449219 -180.492188 C 87.300781 -181.765625 88.292969 -182.832031 89.4375 -183.6875 C 91.484375 -185.222656 93.761719 -185.992188 96.273438 -185.992188 L 163.527344 -185.992188 C 165.777344 -185.992188 167.835938 -185.371094 169.699219 -184.128906 C 171.34375 -183.03125 172.617188 -181.582031 173.515625 -179.785156 C 174.390625 -178.035156 174.828125 -176.054688 174.828125 -173.851562 L 174.828125 -173.5625 L 174.8125 -173.269531 C 174.589844 -169.242188 173.324219 -162.710938 171.015625 -153.679688 C 168.851562 -145.214844 166.453125 -136.375 163.820312 -127.164062 L 156.113281 -101.371094 C 153.96875 -94.164062 152.835938 -90.03125 152.71875 -88.980469 L 152.6875 -88.695312 L 152.640625 -88.414062 C 152.753906 -89.085938 152.777344 -89.6875 152.722656 -90.21875 C 152.714844 -90.269531 152.710938 -90.300781 152.710938 -90.3125 C 152.71875 -90.253906 152.738281 -90.175781 152.761719 -90.078125 C 152.941406 -89.351562 153.28125 -88.324219 153.78125 -87 L 158.539062 -74.261719 C 160.539062 -68.863281 162.332031 -63 163.910156 -56.675781 Z M 143.605469 -51.597656 C 142.210938 -57.179688 140.652344 -62.292969 138.933594 -66.9375 L 134.203125 -79.59375 C 132.234375 -84.796875 131.5 -88.882812 131.996094 -91.855469 L 142.316406 -90.132812 L 131.917969 -91.289062 C 132.171875 -93.585938 133.550781 -98.945312 136.058594 -107.363281 L 143.695312 -132.914062 C 146.273438 -141.9375 148.621094 -150.585938 150.734375 -158.863281 C 152.707031 -166.574219 153.765625 -171.761719 153.914062 -174.433594 L 164.363281 -173.851562 L 153.898438 -173.851562 C 153.898438 -172.761719 154.195312 -171.621094 154.792969 -170.425781 C 155.550781 -168.910156 156.652344 -167.671875 158.085938 -166.714844 C 159.742188 -165.613281 161.554688 -165.058594 163.527344 -165.058594 L 96.273438 -165.058594 C 98.414062 -165.058594 100.320312 -165.6875 101.996094 -166.945312 C 102.765625 -167.523438 103.386719 -168.167969 103.863281 -168.882812 L 95.15625 -174.6875 L 105.253906 -171.933594 C 104.660156 -169.75 103.738281 -166.695312 102.492188 -162.761719 L 98.726562 -150.777344 L 95.234375 -139.597656 C 94.324219 -136.699219 93.8125 -134.96875 93.699219 -134.40625 L 93.601562 -133.921875 L 93.460938 -133.449219 C 92.644531 -130.726562 91.488281 -128.144531 89.996094 -125.699219 C 87.480469 -121.585938 84.097656 -119 79.835938 -117.933594 L 77.296875 -128.085938 L 80.609375 -118.15625 C 77.882812 -117.25 75.21875 -117.269531 72.613281 -118.214844 C 69.953125 -119.183594 67.875 -120.925781 66.382812 -123.441406 C 65.011719 -125.746094 64.28125 -128.691406 64.1875 -132.277344 C 64.09375 -135.699219 63.960938 -138.933594 63.78125 -141.984375 L 63.761719 -142.289062 L 63.761719 -142.597656 C 63.761719 -145.597656 63.910156 -149.527344 64.199219 -154.386719 C 64.476562 -158.988281 64.707031 -163.269531 64.890625 -167.222656 C 65.109375 -171.914062 65.394531 -174.972656 65.75 -176.390625 L 75.902344 -173.851562 L 65.4375 -173.851562 C 65.4375 -172.296875 65.929688 -170.78125 66.917969 -169.300781 C 67.851562 -167.898438 69.078125 -166.820312 70.59375 -166.0625 C 71.929688 -165.394531 73.324219 -165.058594 74.785156 -165.058594 L 8.652344 -165.058594 C 11.632812 -165.058594 14.078125 -166.253906 15.984375 -168.640625 C 17.328125 -170.316406 18 -172.148438 18 -174.128906 C 18 -164.179688 18.136719 -154.230469 18.414062 -144.28125 C 18.699219 -134.074219 18.746094 -123.933594 18.558594 -113.855469 L 18.558594 -39.347656 C 18.558594 -38.332031 18.511719 -35.839844 18.414062 -31.867188 L 18.136719 -18.878906 L 17.855469 -6.421875 L 17.71875 -1.121094 L 7.253906 -1.394531 L 17.71875 -1.394531 C 17.71875 -3.378906 17.050781 -5.207031 15.707031 -6.886719 C 13.796875 -9.273438 11.351562 -10.464844 8.371094 -10.464844 L 71.160156 -10.464844 C 69.492188 -10.464844 67.917969 -10.054688 66.441406 -9.234375 C 64.914062 -8.386719 63.703125 -7.21875 62.8125 -5.734375 C 61.957031 -4.308594 61.53125 -2.863281 61.53125 -1.394531 C 61.53125 -5.109375 61.628906 -8.867188 61.824219 -12.675781 C 62.019531 -16.507812 62.316406 -20.203125 62.710938 -23.757812 L 73.113281 -22.601562 L 62.683594 -23.472656 C 62.851562 -25.484375 62.980469 -28.710938 63.066406 -33.152344 L 63.347656 -46.28125 C 63.402344 -48.734375 63.539062 -50.742188 63.761719 -52.308594 C 64.246094 -55.785156 65.457031 -58.488281 67.386719 -60.421875 L 74.785156 -53.019531 L 66.269531 -59.101562 C 67.359375 -60.628906 68.667969 -61.84375 70.195312 -62.746094 C 72.363281 -64.027344 74.695312 -64.5625 77.191406 -64.355469 C 80.5625 -64.074219 83.5 -62.5 86.011719 -59.632812 C 88.238281 -57.089844 89.945312 -54.035156 91.132812 -50.46875 C 91.574219 -49.152344 92.378906 -46.296875 93.550781 -41.902344 C 94.6875 -37.636719 95.917969 -32.765625 97.238281 -27.292969 C 98.550781 -21.855469 99.722656 -16.886719 100.753906 -12.382812 C 101.671875 -8.375 102.328125 -5.84375 102.722656 -4.789062 L 103.390625 -3.015625 L 103.390625 -1.117188 C 103.390625 -3.070312 102.761719 -4.882812 101.507812 -6.558594 C 100.488281 -7.917969 99.199219 -8.941406 97.644531 -9.632812 C 96.398438 -10.1875 95.101562 -10.464844 93.761719 -10.464844 L 163.804688 -10.464844 C 162.277344 -10.464844 160.816406 -10.089844 159.417969 -9.335938 C 157.425781 -8.261719 155.984375 -6.6875 155.09375 -4.609375 C 154.253906 -2.65625 154.085938 -0.8125 154.578125 0.921875 L 154.53125 0.753906 L 154.488281 0.585938 C 154.265625 -0.304688 153.769531 -2.636719 152.996094 -6.410156 C 152.242188 -10.074219 151.351562 -14.582031 150.320312 -19.921875 C 149.308594 -25.160156 148.207031 -30.582031 147.011719 -36.1875 C 145.816406 -41.804688 144.664062 -47.003906 143.5625 -51.785156 Z M 143.605469 -51.597656 "/></g></g></g><g fill="#ffffff" fill-opacity="1"><g transform="translate(4.726196, 222.924173)"><g><path d="M 153.765625 -54.140625 C 154.878906 -49.296875 156.039062 -44.035156 157.25 -38.359375 C 158.457031 -32.691406 159.570312 -27.207031 160.59375 -21.90625 C 161.625 -16.601562 162.507812 -12.132812 163.25 -8.5 C 164 -4.875 164.460938 -2.691406 164.640625 -1.953125 C 165.015625 -0.648438 164.738281 0 163.8125 0 L 93.765625 0 C 93.203125 0 92.921875 -0.367188 92.921875 -1.109375 C 92.367188 -2.597656 91.578125 -5.578125 90.546875 -10.046875 C 89.523438 -14.515625 88.363281 -19.441406 87.0625 -24.828125 C 85.757812 -30.222656 84.550781 -35.015625 83.4375 -39.203125 C 82.320312 -43.390625 81.578125 -46.039062 81.203125 -47.15625 C 80.460938 -49.394531 79.441406 -51.253906 78.140625 -52.734375 C 76.835938 -54.222656 75.71875 -54.316406 74.78125 -53.015625 C 74.226562 -52.460938 73.90625 -50.140625 73.8125 -46.046875 C 73.71875 -41.953125 73.625 -37.578125 73.53125 -32.921875 C 73.4375 -28.273438 73.296875 -24.835938 73.109375 -22.609375 C 72.742188 -19.253906 72.46875 -15.765625 72.28125 -12.140625 C 72.09375 -8.515625 72 -4.929688 72 -1.390625 C 72 -0.460938 71.71875 0 71.15625 0 L 8.375 0 C 7.625 0 7.25 -0.460938 7.25 -1.390625 C 7.25 -1.390625 7.296875 -3.15625 7.390625 -6.6875 C 7.484375 -10.226562 7.578125 -14.367188 7.671875 -19.109375 C 7.765625 -23.859375 7.859375 -28.1875 7.953125 -32.09375 C 8.046875 -36 8.09375 -38.414062 8.09375 -39.34375 L 8.09375 -113.859375 C 8.28125 -123.898438 8.234375 -133.941406 7.953125 -143.984375 C 7.671875 -154.035156 7.53125 -164.085938 7.53125 -174.140625 C 7.53125 -175.066406 7.90625 -175.53125 8.65625 -175.53125 L 74.78125 -175.53125 C 75.53125 -175.53125 75.90625 -174.972656 75.90625 -173.859375 C 75.71875 -173.109375 75.53125 -170.734375 75.34375 -166.734375 C 75.15625 -162.734375 74.921875 -158.40625 74.640625 -153.75 C 74.367188 -149.101562 74.234375 -145.382812 74.234375 -142.59375 C 74.421875 -139.4375 74.554688 -136.085938 74.640625 -132.546875 C 74.734375 -129.015625 75.617188 -127.53125 77.296875 -128.09375 C 78.785156 -128.457031 80.039062 -129.476562 81.0625 -131.15625 C 82.09375 -132.832031 82.882812 -134.601562 83.4375 -136.46875 C 83.625 -137.394531 84.226562 -139.484375 85.25 -142.734375 C 86.269531 -145.992188 87.429688 -149.71875 88.734375 -153.90625 C 90.046875 -158.09375 91.304688 -162.09375 92.515625 -165.90625 C 93.722656 -169.71875 94.601562 -172.644531 95.15625 -174.6875 C 95.53125 -175.25 95.90625 -175.53125 96.28125 -175.53125 L 163.53125 -175.53125 C 164.09375 -175.53125 164.375 -174.972656 164.375 -173.859375 C 164.1875 -170.503906 163.019531 -164.640625 160.875 -156.265625 C 158.738281 -147.898438 156.367188 -139.160156 153.765625 -130.046875 C 150.972656 -120.742188 148.410156 -112.1875 146.078125 -104.375 C 143.753906 -96.5625 142.503906 -91.816406 142.328125 -90.140625 C 142.140625 -89.023438 142.695312 -86.742188 144 -83.296875 C 145.300781 -79.859375 146.878906 -75.625 148.734375 -70.59375 C 150.597656 -65.570312 152.273438 -60.085938 153.765625 -54.140625 Z M 153.765625 -54.140625 "/></g></g></g></g></g><g transform="matrix(1, 0, 0, 1, 825, 610)"><g clip-path="url(#50cb2cc1aa)"><g clip-path="url(#15a1d2e461)"><g fill="#000000" fill-opacity="1"><g transform="translate(5.059005, 223.232083)"><g><path d="M 173.152344 -46.324219 L 173.152344 -30.976562 C 173.152344 -29.597656 173.199219 -27.472656 173.289062 -24.605469 C 173.378906 -21.707031 173.515625 -18.578125 173.695312 -15.214844 C 173.886719 -11.71875 174.027344 -8.734375 174.125 -6.261719 L 174.269531 -2.433594 L 174.269531 -2.234375 C 174.269531 1.402344 173.0625 4.425781 170.648438 6.84375 C 168.230469 9.257812 165.207031 10.464844 161.574219 10.464844 L 10.605469 10.464844 C 6.257812 10.464844 2.75 9.023438 0.0742188 6.144531 C -2.59375 3.273438 -3.769531 -0.328125 -3.460938 -4.652344 L 6.976562 -3.90625 L -3.480469 -4.324219 C -2.925781 -18.160156 -2.605469 -32.042969 -2.511719 -45.972656 L -2.09375 -88.285156 C -1.90625 -102.238281 -1.386719 -116.273438 -0.539062 -130.386719 C 0.253906 -143.613281 -0.320312 -156.753906 -2.257812 -169.800781 C -2.972656 -174.085938 -1.851562 -177.894531 1.109375 -181.222656 C 3.933594 -184.402344 7.472656 -185.992188 11.71875 -185.992188 L 160.457031 -185.992188 C 163.339844 -185.992188 165.898438 -185.152344 168.132812 -183.480469 C 170.246094 -181.890625 171.742188 -179.785156 172.617188 -177.160156 L 173.152344 -175.550781 L 173.152344 -173.851562 C 173.152344 -173.445312 173.101562 -172.390625 172.996094 -170.6875 C 172.886719 -168.984375 172.726562 -167.28125 172.515625 -165.578125 L 162.132812 -166.875 L 172.597656 -166.875 C 172.597656 -165.75 172.496094 -163.417969 172.300781 -159.875 C 172.121094 -156.632812 171.984375 -153.246094 171.894531 -149.722656 C 171.804688 -146.183594 171.757812 -143.53125 171.757812 -141.761719 C 171.757812 -140.140625 171.84375 -138.101562 172.011719 -135.644531 C 172.183594 -133.15625 172.394531 -130.949219 172.648438 -129.019531 L 173.152344 -125.136719 L 173.152344 -124.457031 C 173.152344 -120.582031 171.773438 -117.414062 169.015625 -114.960938 C 166.613281 -112.828125 163.667969 -111.761719 160.175781 -111.761719 L 160.042969 -111.761719 L 154.46875 -111.902344 C 150.929688 -111.996094 146.414062 -112.039062 140.921875 -112.039062 L 123.203125 -112.039062 C 117.09375 -112.039062 111.449219 -111.949219 106.269531 -111.765625 C 101.277344 -111.59375 97.449219 -111.339844 94.78125 -111.003906 C 93.0625 -110.773438 91.230469 -110.21875 89.28125 -109.339844 C 89.582031 -109.476562 89.878906 -109.75 90.160156 -110.15625 C 90.300781 -110.355469 90.40625 -110.550781 90.472656 -110.742188 L 90.488281 -110.746094 C 90.625 -112.230469 90.195312 -113.4375 89.199219 -114.375 C 89.828125 -113.785156 90.441406 -113.359375 91.035156 -113.09375 L 86.785156 -103.53125 L 88.839844 -113.792969 C 89.222656 -113.714844 91.597656 -113.59375 95.972656 -113.429688 C 100.769531 -113.246094 106.542969 -113.15625 113.296875 -113.15625 C 120.132812 -113.15625 127.015625 -113.203125 133.945312 -113.296875 C 140.96875 -113.390625 146.921875 -113.4375 151.804688 -113.4375 L 160.175781 -113.4375 C 163.667969 -113.4375 166.613281 -112.371094 169.015625 -110.234375 C 171.773438 -107.78125 173.152344 -104.617188 173.152344 -100.738281 L 173.152344 -67.53125 C 173.152344 -63.652344 171.773438 -60.488281 169.015625 -58.035156 C 166.613281 -55.902344 163.667969 -54.832031 160.175781 -54.832031 C 156.957031 -54.832031 152.480469 -54.878906 146.75 -54.976562 C 141.027344 -55.070312 135.117188 -55.210938 129.019531 -55.398438 C 123.015625 -55.582031 117.613281 -55.71875 112.816406 -55.8125 C 108.046875 -55.902344 104.859375 -55.949219 103.25 -55.949219 L 103.25 -66.414062 L 104.292969 -56 C 102.085938 -55.78125 99.457031 -55.671875 96.414062 -55.671875 C 94.765625 -55.671875 93.234375 -55.453125 91.816406 -55.015625 C 92.253906 -55.152344 92.578125 -55.4375 92.796875 -55.875 C 92.679688 -55.648438 92.609375 -55.503906 92.585938 -55.441406 C 92.589844 -55.453125 92.597656 -55.480469 92.609375 -55.53125 C 92.691406 -55.867188 92.710938 -56.257812 92.667969 -56.699219 C 92.5625 -57.808594 92.183594 -58.679688 91.527344 -59.308594 C 92.605469 -58.269531 93.730469 -57.605469 94.90625 -57.3125 L 92.367188 -47.160156 L 94.417969 -57.421875 C 95.601562 -57.1875 98.730469 -57.066406 103.808594 -57.066406 C 109.441406 -57.066406 115.867188 -57.203125 123.085938 -57.476562 L 144.277344 -58.316406 C 151.015625 -58.59375 156.132812 -58.824219 159.628906 -59.007812 L 159.902344 -59.019531 L 160.175781 -59.019531 C 163.667969 -59.019531 166.613281 -57.953125 169.015625 -55.820312 C 171.773438 -53.367188 173.152344 -50.199219 173.152344 -46.324219 Z M 152.222656 -46.324219 C 152.222656 -43.933594 153.183594 -41.886719 155.109375 -40.175781 C 156.671875 -38.785156 158.363281 -38.089844 160.175781 -38.089844 L 160.175781 -48.554688 L 160.726562 -38.105469 C 157.152344 -37.917969 151.945312 -37.683594 145.101562 -37.402344 L 123.878906 -36.5625 C 116.398438 -36.277344 109.707031 -36.136719 103.808594 -36.136719 C 97.351562 -36.136719 92.851562 -36.390625 90.316406 -36.898438 L 90.070312 -36.945312 L 89.828125 -37.007812 C 85.050781 -38.203125 80.78125 -40.605469 77.019531 -44.222656 C 73.949219 -47.175781 72.21875 -50.675781 71.832031 -54.714844 C 71.496094 -58.25 72.246094 -61.757812 74.078125 -65.234375 C 76.527344 -70.136719 80.390625 -73.398438 85.660156 -75.023438 C 89.082031 -76.074219 92.667969 -76.601562 96.414062 -76.601562 C 98.761719 -76.601562 100.695312 -76.675781 102.207031 -76.828125 L 102.726562 -76.878906 L 103.25 -76.878906 C 104.992188 -76.878906 108.316406 -76.832031 113.21875 -76.738281 C 118.09375 -76.644531 123.578125 -76.503906 129.664062 -76.316406 C 135.660156 -76.132812 141.46875 -75.996094 147.09375 -75.902344 C 152.710938 -75.808594 157.070312 -75.765625 160.175781 -75.765625 C 158.363281 -75.765625 156.671875 -75.070312 155.109375 -73.679688 C 153.183594 -71.96875 152.222656 -69.921875 152.222656 -67.53125 L 152.222656 -100.738281 C 152.222656 -98.351562 153.183594 -96.300781 155.109375 -94.589844 C 156.671875 -93.203125 158.363281 -92.507812 160.175781 -92.507812 L 151.804688 -92.507812 C 147.015625 -92.507812 141.15625 -92.460938 134.226562 -92.367188 C 127.203125 -92.273438 120.226562 -92.226562 113.296875 -92.226562 C 106.28125 -92.226562 100.242188 -92.324219 95.183594 -92.511719 C 89.695312 -92.71875 86.210938 -92.972656 84.734375 -93.265625 L 83.597656 -93.496094 L 82.535156 -93.964844 C 79.785156 -95.1875 77.234375 -96.902344 74.882812 -99.105469 C 70.910156 -102.828125 69.179688 -107.480469 69.6875 -113.058594 C 70.070312 -116.5 71.179688 -119.535156 73.015625 -122.15625 C 74.925781 -124.890625 77.476562 -126.976562 80.664062 -128.414062 C 84.480469 -130.140625 88.324219 -131.257812 92.183594 -131.773438 C 95.472656 -132.183594 99.921875 -132.488281 105.535156 -132.683594 C 110.957031 -132.875 116.847656 -132.96875 123.203125 -132.96875 L 140.921875 -132.96875 C 146.59375 -132.96875 151.285156 -132.921875 155.003906 -132.828125 L 160.445312 -132.6875 L 160.175781 -122.226562 L 160.175781 -132.691406 C 158.363281 -132.691406 156.671875 -131.996094 155.109375 -130.605469 C 153.183594 -128.898438 152.222656 -126.847656 152.222656 -124.457031 L 162.6875 -124.457031 L 152.3125 -123.105469 L 151.894531 -126.3125 C 151.585938 -128.664062 151.332031 -131.292969 151.132812 -134.203125 C 150.929688 -137.140625 150.828125 -139.660156 150.828125 -141.761719 C 150.828125 -143.710938 150.875 -146.542969 150.972656 -150.261719 C 151.066406 -153.992188 151.210938 -157.585938 151.402344 -161.035156 C 151.578125 -164.191406 151.664062 -166.136719 151.664062 -166.875 L 151.664062 -167.527344 L 151.746094 -168.171875 C 151.90625 -169.445312 152.023438 -170.71875 152.105469 -171.992188 C 152.148438 -172.714844 152.183594 -173.269531 152.207031 -173.664062 C 152.214844 -173.835938 152.222656 -173.972656 152.226562 -174.066406 C 152.226562 -174.085938 152.226562 -174.097656 152.226562 -174.097656 C 152.226562 -174.027344 152.222656 -173.945312 152.222656 -173.851562 L 162.6875 -173.851562 L 152.761719 -170.542969 C 153.265625 -169.03125 154.203125 -167.761719 155.574219 -166.734375 C 157.0625 -165.617188 158.6875 -165.058594 160.457031 -165.058594 L 11.71875 -165.058594 C 13.738281 -165.058594 15.414062 -165.8125 16.75 -167.316406 C 18.222656 -168.972656 18.785156 -170.828125 18.445312 -172.878906 C 20.597656 -158.394531 21.234375 -143.8125 20.351562 -129.132812 C 19.523438 -115.34375 19.019531 -101.65625 18.835938 -88.078125 L 18.417969 -45.835938 C 18.324219 -31.671875 17.996094 -17.558594 17.433594 -3.488281 L 17.425781 -3.324219 L 17.414062 -3.160156 C 17.449219 -3.660156 17.386719 -4.222656 17.222656 -4.847656 C 16.90625 -6.054688 16.304688 -7.140625 15.414062 -8.097656 C 14.519531 -9.058594 13.480469 -9.742188 12.292969 -10.148438 C 11.675781 -10.359375 11.109375 -10.464844 10.605469 -10.464844 L 161.574219 -10.464844 C 159.425781 -10.464844 157.519531 -9.628906 155.847656 -7.957031 C 154.175781 -6.285156 153.339844 -4.378906 153.339844 -2.234375 L 163.804688 -2.234375 L 153.347656 -1.832031 L 153.207031 -5.457031 C 153.117188 -7.820312 152.980469 -10.699219 152.796875 -14.085938 C 152.605469 -17.605469 152.464844 -20.894531 152.367188 -23.949219 C 152.273438 -27.035156 152.222656 -29.378906 152.222656 -30.976562 Z M 152.222656 -46.324219 "/></g></g></g></g><g fill="#ffffff" fill-opacity="1"><g transform="translate(5.059005, 223.232083)"><g><path d="M 162.6875 -46.328125 C 162.6875 -43.910156 162.6875 -41.257812 162.6875 -38.375 C 162.6875 -35.488281 162.6875 -33.019531 162.6875 -30.96875 C 162.6875 -29.488281 162.734375 -27.257812 162.828125 -24.28125 C 162.921875 -21.300781 163.0625 -18.085938 163.25 -14.640625 C 163.4375 -11.203125 163.578125 -8.273438 163.671875 -5.859375 C 163.765625 -3.441406 163.8125 -2.234375 163.8125 -2.234375 C 163.8125 -0.742188 163.066406 0 161.578125 0 L 10.609375 0 C 8.003906 0 6.796875 -1.300781 6.984375 -3.90625 C 7.535156 -17.863281 7.859375 -31.863281 7.953125 -45.90625 C 8.046875 -59.945312 8.1875 -74.039062 8.375 -88.1875 C 8.5625 -101.945312 9.070312 -115.800781 9.90625 -129.75 C 10.738281 -143.707031 10.132812 -157.570312 8.09375 -171.34375 C 7.90625 -172.457031 8.179688 -173.429688 8.921875 -174.265625 C 9.671875 -175.109375 10.601562 -175.53125 11.71875 -175.53125 L 160.46875 -175.53125 C 161.582031 -175.53125 162.320312 -174.972656 162.6875 -173.859375 C 162.6875 -173.671875 162.640625 -172.832031 162.546875 -171.34375 C 162.460938 -169.851562 162.328125 -168.363281 162.140625 -166.875 C 162.140625 -165.945312 162.046875 -163.804688 161.859375 -160.453125 C 161.671875 -157.109375 161.53125 -153.617188 161.4375 -149.984375 C 161.34375 -146.359375 161.296875 -143.617188 161.296875 -141.765625 C 161.296875 -139.898438 161.390625 -137.617188 161.578125 -134.921875 C 161.765625 -132.222656 161.992188 -129.804688 162.265625 -127.671875 C 162.546875 -125.535156 162.6875 -124.46875 162.6875 -124.46875 C 162.6875 -122.976562 161.851562 -122.234375 160.1875 -122.234375 C 160.1875 -122.234375 158.367188 -122.28125 154.734375 -122.375 C 151.109375 -122.46875 146.503906 -122.515625 140.921875 -122.515625 C 135.347656 -122.515625 129.441406 -122.515625 123.203125 -122.515625 C 116.972656 -122.515625 111.207031 -122.421875 105.90625 -122.234375 C 100.601562 -122.046875 96.460938 -121.765625 93.484375 -121.390625 C 90.691406 -121.015625 87.851562 -120.175781 84.96875 -118.875 C 82.09375 -117.570312 80.46875 -115.25 80.09375 -111.90625 C 79.90625 -109.851562 80.554688 -108.128906 82.046875 -106.734375 C 83.535156 -105.347656 85.113281 -104.28125 86.78125 -103.53125 C 87.71875 -103.34375 90.648438 -103.15625 95.578125 -102.96875 C 100.503906 -102.78125 106.410156 -102.6875 113.296875 -102.6875 C 120.179688 -102.6875 127.109375 -102.734375 134.078125 -102.828125 C 141.054688 -102.921875 146.960938 -102.96875 151.796875 -102.96875 C 156.640625 -102.96875 159.4375 -102.96875 160.1875 -102.96875 C 161.851562 -102.96875 162.6875 -102.222656 162.6875 -100.734375 L 162.6875 -77.578125 C 162.6875 -75.535156 162.6875 -73.769531 162.6875 -72.28125 C 162.6875 -70.789062 162.6875 -69.207031 162.6875 -67.53125 C 162.6875 -66.039062 161.851562 -65.296875 160.1875 -65.296875 C 157.019531 -65.296875 152.597656 -65.34375 146.921875 -65.4375 C 141.253906 -65.53125 135.394531 -65.671875 129.34375 -65.859375 C 123.300781 -66.046875 117.859375 -66.1875 113.015625 -66.28125 C 108.179688 -66.375 104.925781 -66.421875 103.25 -66.421875 C 101.394531 -66.234375 99.117188 -66.140625 96.421875 -66.140625 C 93.722656 -66.140625 91.160156 -65.765625 88.734375 -65.015625 C 86.316406 -64.273438 84.550781 -62.789062 83.4375 -60.5625 C 81.582031 -57.019531 81.863281 -54.085938 84.28125 -51.765625 C 86.695312 -49.441406 89.394531 -47.90625 92.375 -47.15625 C 94.226562 -46.789062 98.039062 -46.609375 103.8125 -46.609375 C 109.582031 -46.609375 116.140625 -46.742188 123.484375 -47.015625 C 130.835938 -47.296875 137.90625 -47.578125 144.6875 -47.859375 C 151.476562 -48.140625 156.644531 -48.375 160.1875 -48.5625 C 161.851562 -48.5625 162.6875 -47.816406 162.6875 -46.328125 Z M 162.6875 -46.328125 "/></g></g></g></g></g><g clip-path="url(#38ba973668)"><g clip-path="url(#6e906bf9e4)"><g clip-path="url(#a220c6fa83)"><path fill="#000000" d="M 1004.914062 702.851562 L 979.601562 796.855469 L 1009.367188 795.847656 L 996.941406 885.0625 L 1058.671875 767.445312 L 1030.550781 768.109375 L 1067.363281 702.058594 Z M 1004.914062 702.851562 " fill-opacity="1" fill-rule="nonzero"/></g></g></g><g clip-path="url(#bfa6ddd47e)"><g transform="matrix(1, 0, 0, 1, 486, 891)"><g clip-path="url(#349ec2f7db)"><g clip-path="url(#20da4ec385)"><path fill="#000000" d="M 0.257812 0.109375 L 527.609375 0.109375 L 527.609375 86.980469 L 0.257812 86.980469 Z M 0.257812 0.109375 " fill-opacity="1" fill-rule="nonzero"/></g></g></g></g><g transform="matrix(1, 0, 0, 1, 642, 611)"><g clip-path="url(#c5cfbdf63b)"><g fill="#000000" fill-opacity="1"><g transform="translate(4.376345, 222.904973)"><g><path d="M 158.097656 -57.980469 C 160 -54.171875 161.871094 -49.464844 163.707031 -43.859375 C 165.425781 -38.601562 167.050781 -33.25 168.578125 -27.804688 C 170.089844 -22.421875 171.367188 -17.695312 172.410156 -13.617188 C 173.527344 -9.25 174.203125 -6.226562 174.445312 -4.550781 L 164.085938 -3.070312 L 174.378906 -4.941406 C 175.007812 -1.492188 174.589844 1.570312 173.132812 4.242188 C 171.945312 6.421875 170.246094 8.0625 168.03125 9.167969 C 166.304688 10.03125 164.429688 10.464844 162.410156 10.464844 L 100.179688 10.464844 C 96.539062 10.464844 93.558594 9.070312 91.234375 6.28125 C 89.789062 4.546875 88.867188 2.46875 88.460938 0.046875 L 98.785156 -1.675781 L 88.722656 1.199219 C 88.398438 0.0703125 87.617188 -2.320312 86.371094 -5.964844 C 85.113281 -9.644531 83.628906 -13.699219 81.914062 -18.121094 C 80.195312 -22.546875 78.578125 -26.507812 77.054688 -30.003906 C 75.871094 -32.71875 75.132812 -34.25 74.839844 -34.601562 L 82.878906 -41.300781 L 75.480469 -33.898438 C 76.507812 -32.871094 77.765625 -32.207031 79.257812 -31.910156 C 80.492188 -31.664062 81.640625 -31.714844 82.699219 -32.070312 C 83.9375 -32.480469 85 -33.234375 85.886719 -34.332031 C 86.742188 -35.390625 87.25 -36.539062 87.402344 -37.769531 L 77.019531 -39.066406 L 87.460938 -38.394531 C 87.101562 -32.800781 86.875 -26.972656 86.785156 -20.914062 C 86.695312 -14.839844 86.738281 -8.910156 86.921875 -3.117188 L 76.460938 -2.789062 L 86.875 -3.832031 C 87.199219 -0.601562 86.625 2.238281 85.15625 4.6875 C 83.972656 6.660156 82.355469 8.160156 80.304688 9.1875 C 78.597656 10.039062 76.757812 10.464844 74.785156 10.464844 L 9.488281 10.464844 C 7.5625 10.464844 5.757812 10.042969 4.074219 9.203125 C 2.207031 8.269531 0.691406 6.929688 -0.476562 5.175781 C -1.925781 3 -2.652344 0.4375 -2.652344 -2.511719 L -2.652344 -26.230469 C -2.652344 -27.246094 -2.605469 -29.746094 -2.507812 -33.734375 C -2.417969 -37.558594 -2.371094 -42.128906 -2.371094 -47.4375 L -2.371094 -63.625 C -2.371094 -68.9375 -2.417969 -73.503906 -2.507812 -77.328125 C -2.605469 -81.316406 -2.652344 -83.820312 -2.652344 -84.832031 L -2.652344 -119.433594 L -2.089844 -146.859375 C -1.90625 -155.921875 -1.90625 -164.941406 -2.089844 -173.917969 C -2.09375 -176.457031 -1.527344 -178.671875 -0.394531 -180.5625 C 0.636719 -182.277344 2.023438 -183.621094 3.761719 -184.585938 C 5.445312 -185.523438 7.261719 -185.992188 9.207031 -185.992188 L 127.527344 -185.992188 C 132.296875 -185.992188 137.027344 -184.847656 141.726562 -182.566406 C 145.707031 -180.632812 149.5 -178.203125 153.101562 -175.277344 L 153.269531 -175.140625 L 153.429688 -175 C 157.390625 -171.503906 160.71875 -167.53125 163.410156 -163.085938 C 165.695312 -159.308594 167.367188 -156.367188 168.421875 -154.253906 L 168.550781 -153.996094 L 168.664062 -153.734375 C 171.519531 -147.144531 173.277344 -140.421875 173.941406 -133.558594 C 174.53125 -127.457031 174.828125 -120.515625 174.828125 -112.738281 C 174.828125 -107.210938 174.328125 -100.992188 173.324219 -94.074219 C 172.257812 -86.703125 170.78125 -80.902344 168.902344 -76.675781 L 159.339844 -80.925781 L 169 -76.902344 C 167.875 -74.199219 166.34375 -71.234375 164.40625 -68.007812 C 162.6875 -65.136719 161.148438 -62.640625 159.796875 -60.515625 C 158.085938 -57.824219 156.863281 -56.113281 156.136719 -55.386719 L 153.070312 -52.320312 L 148.457031 -52.320312 L 148.457031 -62.789062 L 155.855469 -55.386719 C 156.320312 -55.851562 156.6875 -56.464844 156.960938 -57.230469 C 157.320312 -58.242188 157.410156 -59.257812 157.226562 -60.28125 C 157.332031 -59.699219 157.621094 -58.933594 158.097656 -57.980469 Z M 139.375 -48.621094 C 137.992188 -51.386719 137.070312 -54.0625 136.617188 -56.644531 C 136.15625 -59.246094 136.363281 -61.773438 137.234375 -64.230469 C 138.015625 -66.433594 139.292969 -68.421875 141.058594 -70.1875 L 144.121094 -73.253906 L 148.734375 -73.253906 L 148.734375 -62.789062 L 141.335938 -70.1875 C 140.972656 -69.824219 140.683594 -69.492188 140.464844 -69.183594 C 140.515625 -69.253906 140.601562 -69.382812 140.726562 -69.570312 C 141.058594 -70.066406 141.527344 -70.792969 142.140625 -71.753906 C 143.394531 -73.722656 144.832031 -76.0625 146.460938 -78.777344 C 147.871094 -81.128906 148.945312 -83.1875 149.679688 -84.949219 L 149.726562 -85.0625 L 149.777344 -85.175781 C 150.875 -87.644531 151.820312 -91.613281 152.609375 -97.078125 C 153.46875 -102.996094 153.898438 -108.21875 153.898438 -112.738281 C 153.898438 -119.84375 153.636719 -126.109375 153.109375 -131.542969 C 152.65625 -136.214844 151.441406 -140.839844 149.457031 -145.414062 L 159.0625 -149.574219 L 149.699219 -144.894531 C 148.898438 -146.5 147.496094 -148.953125 145.503906 -152.246094 C 143.917969 -154.867188 141.941406 -157.222656 139.578125 -159.308594 L 146.503906 -167.152344 L 139.90625 -159.03125 C 137.554688 -160.941406 135.113281 -162.511719 132.582031 -163.738281 C 130.769531 -164.621094 129.085938 -165.058594 127.527344 -165.058594 L 9.207031 -165.058594 C 10.878906 -165.058594 12.449219 -165.46875 13.925781 -166.289062 C 15.453125 -167.140625 16.664062 -168.308594 17.554688 -169.792969 C 18.410156 -171.21875 18.835938 -172.734375 18.835938 -174.34375 C 19.023438 -165.085938 19.023438 -155.78125 18.835938 -146.429688 L 18.277344 -119.433594 L 18.277344 -84.832031 C 18.277344 -83.984375 18.324219 -81.648438 18.414062 -77.828125 C 18.511719 -73.835938 18.558594 -69.101562 18.558594 -63.625 L 18.558594 -47.4375 C 18.558594 -41.960938 18.511719 -37.226562 18.414062 -33.238281 C 18.324219 -29.414062 18.277344 -27.078125 18.277344 -26.230469 L 18.277344 -2.511719 C 18.277344 -3.785156 17.832031 -5.09375 16.941406 -6.433594 C 16.050781 -7.765625 14.882812 -8.792969 13.433594 -9.515625 C 12.171875 -10.148438 10.855469 -10.464844 9.488281 -10.464844 L 74.785156 -10.464844 C 73.464844 -10.464844 72.183594 -10.15625 70.945312 -9.535156 C 69.359375 -8.742188 68.113281 -7.589844 67.207031 -6.082031 C 66.296875 -4.5625 65.910156 -3.121094 66.046875 -1.75 L 66.011719 -2.105469 L 66 -2.464844 C 65.808594 -8.578125 65.761719 -14.832031 65.859375 -21.226562 C 65.953125 -27.628906 66.191406 -33.800781 66.574219 -39.742188 L 66.597656 -40.054688 L 66.636719 -40.367188 C 66.976562 -43.085938 67.96875 -45.464844 69.617188 -47.5 C 71.296875 -49.574219 73.449219 -51.046875 76.082031 -51.925781 C 78.535156 -52.746094 80.964844 -52.914062 83.363281 -52.433594 C 86.015625 -51.902344 88.320312 -50.660156 90.277344 -48.699219 L 90.613281 -48.363281 L 90.917969 -48 C 92.488281 -46.117188 94.261719 -42.90625 96.238281 -38.367188 C 97.878906 -34.605469 99.609375 -30.382812 101.425781 -25.6875 C 103.246094 -21 104.828125 -16.679688 106.175781 -12.730469 C 107.535156 -8.75 108.425781 -6.023438 108.847656 -4.550781 L 109.011719 -3.980469 L 109.109375 -3.394531 C 108.890625 -4.703125 108.292969 -5.945312 107.3125 -7.117188 C 105.453125 -9.347656 103.078125 -10.464844 100.179688 -10.464844 L 162.410156 -10.464844 C 161.136719 -10.464844 159.890625 -10.160156 158.671875 -9.550781 C 156.96875 -8.703125 155.664062 -7.445312 154.757812 -5.777344 C 153.855469 -4.125 153.53125 -2.597656 153.789062 -1.199219 L 153.753906 -1.394531 L 153.722656 -1.589844 C 153.59375 -2.515625 153.0625 -4.796875 152.132812 -8.429688 C 151.128906 -12.351562 149.894531 -16.921875 148.425781 -22.148438 C 146.980469 -27.304688 145.441406 -32.371094 143.8125 -37.347656 C 142.300781 -41.972656 140.820312 -45.730469 139.375 -48.621094 Z M 78.566406 -101.792969 C 78.738281 -105.4375 78.78125 -108.75 78.695312 -111.742188 C 78.613281 -114.664062 78.40625 -117.445312 78.074219 -120.089844 C 77.867188 -121.960938 77.613281 -123.351562 77.3125 -124.253906 C 77.273438 -124.363281 77.242188 -124.449219 77.214844 -124.511719 C 77.222656 -124.496094 77.242188 -124.460938 77.273438 -124.40625 C 77.511719 -123.992188 77.863281 -123.578125 78.328125 -123.167969 C 78.375 -123.125 78.507812 -123.058594 78.722656 -122.96875 C 79.222656 -122.75 79.773438 -122.644531 80.367188 -122.644531 C 81.449219 -122.644531 82.429688 -122.949219 83.300781 -123.558594 C 83.910156 -123.988281 84.464844 -124.570312 84.960938 -125.316406 C 85.898438 -126.726562 86.367188 -128.300781 86.367188 -130.039062 L 86.367188 -120.832031 C 86.367188 -117.789062 86.320312 -113.769531 86.226562 -108.773438 C 86.140625 -104.113281 86.179688 -100.339844 86.351562 -97.445312 L 86.367188 -97.140625 L 86.367188 -96.832031 C 86.367188 -96.296875 86.472656 -95.5625 86.675781 -94.636719 C 86.28125 -96.410156 85.324219 -97.839844 83.800781 -98.929688 C 82.886719 -99.582031 82.035156 -99.9375 81.238281 -100.003906 L 80.367188 -89.578125 L 80.367188 -100.042969 C 79.6875 -100.042969 79.078125 -99.910156 78.539062 -99.648438 C 78.414062 -99.585938 78.316406 -99.53125 78.25 -99.480469 C 78.28125 -99.503906 78.332031 -99.550781 78.410156 -99.628906 C 78.230469 -99.449219 78.09375 -99.277344 78 -99.121094 L 77.992188 -99.113281 C 78.015625 -99.164062 78.042969 -99.230469 78.070312 -99.3125 C 78.308594 -99.984375 78.484375 -100.949219 78.59375 -102.203125 L 89.019531 -101.296875 Z M 99.472656 -100.800781 L 99.460938 -100.59375 L 99.445312 -100.390625 C 98.851562 -93.578125 96.773438 -88.390625 93.210938 -84.828125 C 89.398438 -81.015625 85.117188 -79.113281 80.367188 -79.113281 L 79.933594 -79.113281 L 79.5 -79.148438 C 76.46875 -79.398438 73.847656 -80.316406 71.632812 -81.898438 C 68.808594 -83.917969 67.011719 -86.648438 66.246094 -90.097656 C 65.707031 -92.519531 65.4375 -94.765625 65.4375 -96.832031 L 75.902344 -96.832031 L 65.457031 -96.21875 C 65.253906 -99.652344 65.203125 -103.96875 65.300781 -109.167969 C 65.390625 -114.03125 65.4375 -117.921875 65.4375 -120.832031 L 65.4375 -130.039062 C 65.4375 -132.523438 66.140625 -134.820312 67.542969 -136.925781 C 68.503906 -138.367188 69.757812 -139.628906 71.296875 -140.707031 C 74.027344 -142.617188 77.050781 -143.574219 80.367188 -143.574219 C 84.679688 -143.574219 88.617188 -142.003906 92.175781 -138.863281 C 95.777344 -135.683594 98 -130.292969 98.84375 -122.6875 C 99.257812 -119.378906 99.515625 -115.929688 99.617188 -112.339844 C 99.71875 -108.816406 99.671875 -104.972656 99.472656 -100.800781 Z M 99.472656 -100.800781 "/></g></g></g><g fill="#ffffff" fill-opacity="1"><g transform="translate(4.376345, 222.904973)"><g><path d="M 148.734375 -53.296875 C 150.410156 -49.953125 152.085938 -45.71875 153.765625 -40.59375 C 155.441406 -35.476562 157.019531 -30.269531 158.5 -24.96875 C 159.988281 -19.664062 161.242188 -15.015625 162.265625 -11.015625 C 163.296875 -7.015625 163.90625 -4.363281 164.09375 -3.0625 C 164.457031 -1.019531 163.898438 0 162.421875 0 L 100.1875 0 C 99.4375 0 98.96875 -0.554688 98.78125 -1.671875 C 98.414062 -2.972656 97.582031 -5.53125 96.28125 -9.34375 C 94.976562 -13.15625 93.441406 -17.34375 91.671875 -21.90625 C 89.898438 -26.46875 88.222656 -30.5625 86.640625 -34.1875 C 85.066406 -37.8125 83.8125 -40.179688 82.875 -41.296875 C 81.945312 -42.234375 80.785156 -42.46875 79.390625 -42 C 77.992188 -41.53125 77.203125 -40.550781 77.015625 -39.0625 C 76.648438 -33.300781 76.421875 -27.300781 76.328125 -21.0625 C 76.234375 -14.832031 76.28125 -8.742188 76.46875 -2.796875 C 76.65625 -0.929688 76.09375 0 74.78125 0 L 9.484375 0 C 8.367188 0 7.8125 -0.835938 7.8125 -2.515625 L 7.8125 -26.234375 C 7.8125 -27.160156 7.859375 -29.578125 7.953125 -33.484375 C 8.046875 -37.390625 8.09375 -42.039062 8.09375 -47.4375 C 8.09375 -52.832031 8.09375 -58.226562 8.09375 -63.625 C 8.09375 -69.019531 8.046875 -73.671875 7.953125 -77.578125 C 7.859375 -81.484375 7.8125 -83.898438 7.8125 -84.828125 L 7.8125 -119.4375 C 8 -128.363281 8.1875 -137.429688 8.375 -146.640625 C 8.5625 -155.859375 8.5625 -165.023438 8.375 -174.140625 C 8.375 -175.066406 8.648438 -175.53125 9.203125 -175.53125 L 127.53125 -175.53125 C 130.695312 -175.53125 133.90625 -174.738281 137.15625 -173.15625 C 140.414062 -171.570312 143.535156 -169.570312 146.515625 -167.15625 C 149.671875 -164.363281 152.316406 -161.203125 154.453125 -157.671875 C 156.597656 -154.140625 158.132812 -151.441406 159.0625 -149.578125 C 161.476562 -143.992188 162.96875 -138.316406 163.53125 -132.546875 C 164.09375 -126.785156 164.375 -120.179688 164.375 -112.734375 C 164.375 -107.710938 163.90625 -101.992188 162.96875 -95.578125 C 162.039062 -89.160156 160.832031 -84.273438 159.34375 -80.921875 C 158.414062 -78.691406 157.113281 -76.179688 155.4375 -73.390625 C 153.757812 -70.597656 152.269531 -68.175781 150.96875 -66.125 C 149.664062 -64.082031 148.921875 -62.972656 148.734375 -62.796875 C 148.734375 -62.796875 148.644531 -62.796875 148.46875 -62.796875 C 147.164062 -61.484375 146.648438 -60.035156 146.921875 -58.453125 C 147.203125 -56.878906 147.804688 -55.160156 148.734375 -53.296875 Z M 89.015625 -101.296875 C 89.203125 -105.203125 89.25 -108.78125 89.15625 -112.03125 C 89.0625 -115.289062 88.832031 -118.410156 88.46875 -121.390625 C 87.90625 -126.410156 86.832031 -129.617188 85.25 -131.015625 C 83.664062 -132.410156 82.039062 -133.109375 80.375 -133.109375 C 79.257812 -133.109375 78.234375 -132.78125 77.296875 -132.125 C 76.367188 -131.476562 75.90625 -130.785156 75.90625 -130.046875 C 75.90625 -128.929688 75.90625 -127.535156 75.90625 -125.859375 C 75.90625 -124.179688 75.90625 -122.503906 75.90625 -120.828125 C 75.90625 -117.859375 75.859375 -113.90625 75.765625 -108.96875 C 75.671875 -104.039062 75.71875 -99.992188 75.90625 -96.828125 C 75.90625 -95.523438 76.085938 -94.035156 76.453125 -92.359375 C 76.828125 -90.691406 78.132812 -89.765625 80.375 -89.578125 C 82.226562 -89.578125 84.039062 -90.457031 85.8125 -92.21875 C 87.582031 -93.988281 88.648438 -97.015625 89.015625 -101.296875 Z M 89.015625 -101.296875 "/></g></g></g></g></g><g transform="matrix(1, 0, 0, 1, 453, 610)"><g clip-path="url(#388c6d3ce9)"><g fill="#000000" fill-opacity="1"><g transform="translate(4.566263, 222.924173)"><g><path d="M 175.34375 -125.125 C 175.5625 -122.699219 175.625 -118.875 175.523438 -113.652344 C 175.429688 -108.683594 175.238281 -103.710938 174.949219 -98.742188 C 174.628906 -93.175781 174.09375 -89.015625 173.34375 -86.265625 L 163.246094 -89.019531 L 173.523438 -87.042969 C 172.46875 -81.5625 170.753906 -75.816406 168.371094 -69.8125 C 165.726562 -63.140625 161.507812 -56.796875 155.714844 -50.785156 C 150.433594 -45.292969 145.636719 -41.238281 141.320312 -38.625 C 137.632812 -36.394531 134.503906 -34.585938 131.929688 -33.203125 C 128.164062 -31.082031 123.027344 -29.304688 116.523438 -27.871094 C 110.730469 -26.59375 105.117188 -25.609375 99.6875 -24.917969 C 94.132812 -24.210938 90.113281 -23.859375 87.625 -23.859375 C 86.46875 -23.859375 85.679688 -23.796875 85.253906 -23.675781 C 86.09375 -23.917969 86.910156 -24.558594 87.703125 -25.59375 C 87.871094 -25.8125 87.988281 -25.996094 88.0625 -26.15625 C 88.035156 -26.097656 87.996094 -25.984375 87.945312 -25.808594 C 87.730469 -25.0625 87.5625 -24.035156 87.4375 -22.726562 L 87.410156 -22.425781 L 87.363281 -22.128906 C 87.070312 -20.238281 86.925781 -17.558594 86.925781 -14.09375 L 86.925781 -3.347656 C 86.925781 0.09375 86.019531 3.023438 84.207031 5.441406 C 81.695312 8.789062 78.273438 10.464844 73.949219 10.464844 L 10.046875 10.464844 C 5.847656 10.464844 2.46875 8.929688 -0.0859375 5.863281 C -2.167969 3.363281 -3.210938 0.292969 -3.210938 -3.347656 L -3.066406 -10.265625 L -2.648438 -26.777344 C -2.464844 -33.261719 -2.324219 -39.640625 -2.230469 -45.917969 C -2.140625 -52.191406 -2.09375 -57.351562 -2.09375 -61.390625 C -1.90625 -77 -1.953125 -92.609375 -2.230469 -108.226562 C -2.511719 -124.007812 -2.652344 -139.835938 -2.652344 -155.710938 L 7.8125 -155.710938 L -2.648438 -155.394531 C -2.835938 -161.640625 -2.929688 -167.886719 -2.929688 -174.128906 C -2.929688 -177.863281 -1.535156 -180.890625 1.253906 -183.214844 C 3.472656 -185.066406 6.125 -185.992188 9.207031 -185.992188 L 116.925781 -185.992188 C 121.148438 -185.992188 126.054688 -185.277344 131.648438 -183.851562 C 137.773438 -182.292969 144.566406 -178.660156 152.023438 -172.957031 C 157.515625 -168.660156 161.910156 -163.449219 165.207031 -157.324219 C 168.179688 -151.800781 170.46875 -146.152344 172.074219 -140.375 C 173.589844 -134.917969 174.660156 -130.011719 175.28125 -125.660156 L 175.320312 -125.394531 Z M 154.5 -123.230469 L 164.921875 -124.179688 L 154.5625 -122.699219 C 154.066406 -126.160156 153.183594 -130.183594 151.90625 -134.773438 C 150.722656 -139.042969 149.011719 -143.253906 146.777344 -147.402344 C 144.867188 -150.953125 142.375 -153.929688 139.308594 -156.328125 C 134.117188 -160.300781 129.839844 -162.714844 126.476562 -163.570312 C 122.582031 -164.5625 119.398438 -165.058594 116.925781 -165.058594 L 9.207031 -165.058594 C 11.175781 -165.058594 12.992188 -165.753906 14.652344 -167.136719 C 16.882812 -168.996094 18 -171.328125 18 -174.128906 C 18 -168.097656 18.089844 -162.0625 18.273438 -156.03125 L 18.277344 -155.871094 L 18.277344 -155.710938 C 18.277344 -139.960938 18.417969 -124.257812 18.695312 -108.597656 C 18.976562 -92.773438 19.023438 -77.039062 18.835938 -61.390625 C 18.835938 -57.246094 18.789062 -51.988281 18.695312 -45.609375 C 18.601562 -39.238281 18.460938 -32.78125 18.273438 -26.246094 L 17.859375 -9.828125 L 17.71875 -3.347656 C 17.71875 -4.757812 17.144531 -6.15625 15.992188 -7.535156 C 14.367188 -9.488281 12.382812 -10.464844 10.046875 -10.464844 L 73.949219 -10.464844 C 72.886719 -10.464844 71.835938 -10.234375 70.796875 -9.773438 C 69.453125 -9.175781 68.339844 -8.289062 67.460938 -7.117188 C 66.484375 -5.8125 65.996094 -4.558594 65.996094 -3.347656 L 65.996094 -14.09375 C 65.996094 -18.625 66.222656 -22.363281 66.675781 -25.3125 L 77.019531 -23.71875 L 66.601562 -24.710938 C 67.164062 -30.609375 68.65625 -35.140625 71.078125 -38.308594 C 74.382812 -42.628906 79.898438 -44.789062 87.625 -44.789062 C 89.226562 -44.789062 92.367188 -45.085938 97.046875 -45.683594 C 101.847656 -46.292969 106.839844 -47.167969 112.019531 -48.3125 C 116.496094 -49.296875 119.824219 -50.402344 122.007812 -51.628906 C 124.273438 -52.847656 127.097656 -54.484375 130.480469 -56.53125 C 133.234375 -58.199219 136.621094 -61.121094 140.640625 -65.300781 C 144.523438 -69.335938 147.28125 -73.410156 148.914062 -77.527344 C 150.8125 -82.3125 152.164062 -86.800781 152.96875 -90.996094 L 153.046875 -91.386719 L 153.152344 -91.773438 C 153.515625 -93.113281 153.816406 -95.839844 154.054688 -99.945312 C 154.328125 -104.648438 154.507812 -109.351562 154.597656 -114.054688 C 154.683594 -118.507812 154.652344 -121.566406 154.5 -123.230469 Z M 84.132812 -122.226562 C 84.132812 -123.210938 84.054688 -124.570312 83.898438 -126.300781 C 83.882812 -126.484375 83.855469 -126.601562 83.816406 -126.65625 C 84.402344 -125.824219 85.144531 -125.21875 86.042969 -124.839844 C 86.308594 -124.726562 86.550781 -124.648438 86.773438 -124.609375 L 86.785156 -124.597656 C 86.949219 -124.597656 87.222656 -124.683594 87.609375 -124.851562 C 88.394531 -125.199219 89.042969 -125.722656 89.550781 -126.425781 C 89.347656 -126.144531 89.230469 -125.878906 89.191406 -125.628906 C 88.984375 -124.167969 88.878906 -123.125 88.878906 -122.503906 L 88.878906 -121.925781 L 88.816406 -121.347656 C 88.664062 -119.972656 88.542969 -117.53125 88.457031 -114.019531 L 88.179688 -102.578125 C 88.097656 -99.28125 88.117188 -97.148438 88.242188 -96.175781 L 88.320312 -95.53125 L 88.320312 -94.878906 C 88.320312 -94.03125 88.433594 -92.761719 88.652344 -91.070312 C 88.730469 -90.453125 88.921875 -89.914062 89.214844 -89.445312 C 88.65625 -90.328125 87.914062 -90.980469 86.984375 -91.402344 C 86.703125 -91.53125 86.445312 -91.613281 86.207031 -91.660156 L 86.226562 -91.671875 C 86.371094 -91.671875 86.488281 -91.675781 86.585938 -91.683594 L 86.574219 -91.679688 C 86.253906 -91.605469 85.902344 -91.457031 85.519531 -91.226562 C 84.257812 -90.46875 83.449219 -89.421875 83.09375 -88.085938 C 83.703125 -90.371094 84.070312 -92.089844 84.199219 -93.242188 L 94.597656 -92.089844 L 84.132812 -92.089844 C 84.132812 -94.023438 84.183594 -97.167969 84.277344 -101.523438 C 84.367188 -105.726562 84.414062 -109.835938 84.414062 -113.855469 C 84.414062 -117.511719 84.347656 -119.871094 84.214844 -120.929688 L 84.132812 -121.574219 Z M 105.066406 -122.226562 L 94.597656 -122.226562 L 104.984375 -123.523438 C 105.222656 -121.605469 105.34375 -118.382812 105.34375 -113.855469 C 105.34375 -109.6875 105.296875 -105.425781 105.203125 -101.070312 C 105.109375 -96.867188 105.066406 -93.871094 105.066406 -92.089844 L 105.066406 -91.507812 L 105 -90.933594 C 104.757812 -88.738281 104.195312 -85.992188 103.316406 -82.695312 C 102.214844 -78.566406 99.871094 -75.429688 96.285156 -73.277344 C 93.464844 -71.585938 90.113281 -70.738281 86.226562 -70.738281 C 83.328125 -70.738281 80.703125 -71.269531 78.355469 -72.332031 C 75.472656 -73.636719 73.195312 -75.617188 71.519531 -78.269531 C 69.582031 -81.335938 68.375 -84.699219 67.898438 -88.363281 C 67.558594 -90.953125 67.390625 -93.125 67.390625 -94.878906 L 77.855469 -94.878906 L 67.472656 -93.582031 C 67.222656 -95.585938 67.148438 -98.753906 67.253906 -103.085938 L 67.535156 -114.527344 C 67.632812 -118.644531 67.792969 -121.6875 68.011719 -123.660156 L 78.414062 -122.503906 L 67.949219 -122.503906 C 67.949219 -124.117188 68.125 -126.144531 68.472656 -128.589844 C 68.996094 -132.246094 70.363281 -135.609375 72.582031 -138.679688 C 75.878906 -143.246094 80.613281 -145.527344 86.785156 -145.527344 C 93.003906 -145.527344 97.714844 -143.261719 100.917969 -138.726562 C 103.113281 -135.617188 104.386719 -132.105469 104.742188 -128.195312 C 104.957031 -125.835938 105.066406 -123.84375 105.066406 -122.226562 Z M 105.066406 -122.226562 "/></g></g></g><g fill="#ffffff" fill-opacity="1"><g transform="translate(4.566263, 222.924173)"><g><path d="M 164.921875 -124.1875 C 165.109375 -122.132812 165.15625 -118.691406 165.0625 -113.859375 C 164.96875 -109.023438 164.78125 -104.1875 164.5 -99.34375 C 164.226562 -94.507812 163.8125 -91.066406 163.25 -89.015625 C 162.320312 -84.179688 160.785156 -79.066406 158.640625 -73.671875 C 156.503906 -68.273438 153.019531 -63.066406 148.1875 -58.046875 C 143.53125 -53.210938 139.429688 -49.722656 135.890625 -47.578125 C 132.359375 -45.441406 129.382812 -43.722656 126.96875 -42.421875 C 124 -40.742188 119.769531 -39.300781 114.28125 -38.09375 C 108.789062 -36.882812 103.488281 -35.953125 98.375 -35.296875 C 93.257812 -34.648438 89.675781 -34.328125 87.625 -34.328125 C 83.34375 -34.328125 80.597656 -33.535156 79.390625 -31.953125 C 78.179688 -30.367188 77.390625 -27.625 77.015625 -23.71875 C 76.648438 -21.300781 76.46875 -18.09375 76.46875 -14.09375 C 76.46875 -10.09375 76.46875 -6.507812 76.46875 -3.34375 C 76.46875 -1.113281 75.628906 0 73.953125 0 L 10.046875 0 C 8.179688 0 7.25 -1.113281 7.25 -3.34375 C 7.25 -3.34375 7.296875 -5.578125 7.390625 -10.046875 C 7.484375 -14.515625 7.625 -20.003906 7.8125 -26.515625 C 8 -33.023438 8.140625 -39.441406 8.234375 -45.765625 C 8.328125 -52.085938 8.375 -57.296875 8.375 -61.390625 C 8.5625 -77.015625 8.515625 -92.6875 8.234375 -108.40625 C 7.953125 -124.132812 7.8125 -139.90625 7.8125 -155.71875 C 7.625 -161.851562 7.53125 -167.992188 7.53125 -174.140625 C 7.53125 -175.066406 8.085938 -175.53125 9.203125 -175.53125 L 116.921875 -175.53125 C 120.273438 -175.53125 124.320312 -174.925781 129.0625 -173.71875 C 133.8125 -172.507812 139.347656 -169.484375 145.671875 -164.640625 C 149.953125 -161.296875 153.394531 -157.203125 156 -152.359375 C 158.601562 -147.523438 160.601562 -142.597656 162 -137.578125 C 163.394531 -132.554688 164.367188 -128.09375 164.921875 -124.1875 Z M 94.609375 -122.234375 C 94.609375 -123.535156 94.515625 -125.207031 94.328125 -127.25 C 94.140625 -129.300781 93.488281 -131.113281 92.375 -132.6875 C 91.257812 -134.269531 89.394531 -135.0625 86.78125 -135.0625 C 84.175781 -135.0625 82.269531 -134.222656 81.0625 -132.546875 C 79.851562 -130.878906 79.109375 -129.066406 78.828125 -127.109375 C 78.554688 -125.160156 78.421875 -123.628906 78.421875 -122.515625 C 78.234375 -120.835938 78.09375 -118.09375 78 -114.28125 C 77.90625 -110.46875 77.8125 -106.648438 77.71875 -102.828125 C 77.625 -99.015625 77.671875 -96.363281 77.859375 -94.875 C 77.859375 -93.570312 78 -91.851562 78.28125 -89.71875 C 78.5625 -87.582031 79.257812 -85.628906 80.375 -83.859375 C 81.488281 -82.085938 83.441406 -81.203125 86.234375 -81.203125 C 90.140625 -81.203125 92.460938 -82.597656 93.203125 -85.390625 C 93.953125 -88.179688 94.421875 -90.414062 94.609375 -92.09375 C 94.609375 -93.945312 94.648438 -97.015625 94.734375 -101.296875 C 94.828125 -105.578125 94.875 -109.765625 94.875 -113.859375 C 94.875 -117.953125 94.785156 -120.742188 94.609375 -122.234375 Z M 94.609375 -122.234375 "/></g></g></g></g></g><g transform="matrix(1, 0, 0, 1, 264, 610)"><g clip-path="url(#fa77c70b47)"><g clip-path="url(#1902fed4e4)"><g fill="#000000" fill-opacity="1"><g transform="translate(4.756182, 222.924173)"><g><path d="M 172.316406 -121.390625 L 172.316406 -65.855469 C 172.316406 -57.449219 171.25 -50.097656 169.109375 -43.796875 C 167.160156 -38.042969 164.652344 -32.308594 161.589844 -26.589844 C 158.648438 -21.164062 155.03125 -16.359375 150.734375 -12.175781 C 146.652344 -8.203125 142.335938 -4.804688 137.78125 -1.984375 C 132.457031 1.292969 127.074219 4.058594 121.632812 6.316406 C 115.417969 8.894531 107.523438 10.1875 97.949219 10.1875 L 60.578125 10.1875 L 60.324219 10.171875 C 51.191406 9.726562 42.601562 7.441406 34.5625 3.308594 C 26.894531 -0.632812 20.628906 -5.035156 15.761719 -9.902344 C 12.898438 -12.765625 9.984375 -16.722656 7.019531 -21.769531 C 4.179688 -26.609375 1.8125 -31.65625 -0.078125 -36.917969 C -2.167969 -42.714844 -3.210938 -47.988281 -3.210938 -52.742188 L -3.210938 -122.503906 C -3.210938 -131.894531 -1.6875 -140.257812 1.359375 -147.589844 C 4.363281 -154.824219 7.980469 -160.671875 12.214844 -165.140625 C 19.203125 -172.566406 26.058594 -177.632812 32.78125 -180.347656 C 38.933594 -182.832031 46.28125 -184.59375 54.824219 -185.632812 L 56.089844 -175.246094 L 48.691406 -182.644531 C 50.484375 -184.441406 52.753906 -185.484375 55.492188 -185.769531 C 56.054688 -185.828125 56.730469 -185.867188 57.527344 -185.882812 C 58.710938 -185.910156 60.363281 -185.898438 62.476562 -185.847656 C 66.300781 -185.757812 71.007812 -185.710938 76.601562 -185.710938 L 107.4375 -185.710938 C 115.824219 -185.710938 123.625 -184.507812 130.835938 -182.105469 C 138.472656 -179.558594 145.371094 -175.320312 151.53125 -169.390625 C 157.722656 -163.640625 162.738281 -156.328125 166.574219 -147.445312 C 170.402344 -138.585938 172.316406 -129.902344 172.316406 -121.390625 Z M 151.386719 -121.390625 C 151.386719 -127.015625 150.046875 -132.933594 147.363281 -139.144531 C 144.6875 -145.332031 141.238281 -150.386719 137.011719 -154.3125 C 133.125 -158.054688 128.859375 -160.703125 124.21875 -162.25 C 119.152344 -163.9375 113.558594 -164.78125 107.4375 -164.78125 L 76.601562 -164.78125 C 70.84375 -164.78125 65.96875 -164.828125 61.980469 -164.925781 C 60.1875 -164.964844 58.863281 -164.976562 58.003906 -164.957031 C 57.847656 -164.953125 57.71875 -164.949219 57.621094 -164.945312 L 57.664062 -164.949219 C 59.84375 -165.179688 61.785156 -166.144531 63.488281 -167.847656 L 60.9375 -165.296875 L 57.355469 -164.859375 C 50.640625 -164.039062 45.0625 -162.734375 40.613281 -160.9375 C 36.730469 -159.371094 32.328125 -155.972656 27.410156 -150.746094 C 24.945312 -148.148438 22.707031 -144.417969 20.6875 -139.558594 C 18.710938 -134.796875 17.71875 -129.113281 17.71875 -122.503906 L 17.71875 -52.742188 C 17.71875 -50.425781 18.351562 -47.511719 19.613281 -44.007812 C 21.066406 -39.964844 22.886719 -36.085938 25.070312 -32.367188 C 27.128906 -28.855469 28.960938 -26.300781 30.5625 -24.703125 C 33.882812 -21.382812 38.40625 -18.25 44.128906 -15.308594 C 49.484375 -12.554688 55.222656 -11.03125 61.34375 -10.730469 L 60.832031 -0.277344 L 60.832031 -10.746094 L 97.949219 -10.746094 C 104.742188 -10.746094 109.964844 -11.5 113.609375 -13.015625 C 118.027344 -14.847656 122.414062 -17.105469 126.761719 -19.78125 C 130.023438 -21.796875 133.144531 -24.261719 136.132812 -27.171875 C 138.90625 -29.871094 141.242188 -32.972656 143.140625 -36.476562 C 145.65625 -41.175781 147.707031 -45.859375 149.289062 -50.523438 C 150.6875 -54.640625 151.386719 -59.753906 151.386719 -65.855469 Z M 83.578125 -71.160156 C 83.578125 -68.234375 83.75 -65.921875 84.097656 -64.214844 C 84.210938 -63.667969 84.324219 -63.253906 84.4375 -62.980469 C 84.390625 -63.089844 84.265625 -63.269531 84.054688 -63.519531 C 83.917969 -63.683594 83.710938 -63.765625 83.4375 -63.765625 L 83.476562 -63.761719 C 83.390625 -63.753906 83.289062 -63.730469 83.171875 -63.699219 C 82.726562 -63.574219 82.289062 -63.359375 81.855469 -63.046875 C 81.03125 -62.453125 80.523438 -61.8125 80.332031 -61.125 C 81.007812 -63.554688 81.34375 -65.320312 81.34375 -66.414062 C 81.34375 -73.609375 81.484375 -81.175781 81.769531 -89.113281 C 82.039062 -96.675781 82.085938 -102.941406 81.910156 -107.898438 L 92.367188 -108.273438 L 81.941406 -107.367188 C 81.636719 -110.890625 81.128906 -113.78125 80.425781 -116.035156 C 80.71875 -115.097656 81.351562 -114.316406 82.332031 -113.691406 C 82.722656 -113.441406 83.101562 -113.269531 83.464844 -113.179688 L 83.4375 -113.15625 C 83.136719 -113.15625 82.890625 -113.140625 82.707031 -113.113281 C 82.675781 -113.109375 82.660156 -113.105469 82.652344 -113.105469 C 82.691406 -113.113281 82.742188 -113.128906 82.800781 -113.152344 C 83.445312 -113.390625 84.023438 -113.835938 84.535156 -114.484375 C 84.265625 -114.144531 84.089844 -113.707031 84.003906 -113.175781 C 83.71875 -111.398438 83.578125 -110.042969 83.578125 -109.109375 Z M 62.648438 -71.160156 L 62.648438 -109.109375 C 62.648438 -111.152344 62.878906 -113.613281 63.335938 -116.484375 C 63.996094 -120.605469 65.585938 -124.261719 68.109375 -127.453125 C 71.597656 -131.875 76.707031 -134.085938 83.4375 -134.085938 C 87.339844 -134.085938 90.730469 -133.164062 93.613281 -131.320312 C 96.917969 -129.207031 99.179688 -126.191406 100.402344 -122.277344 C 101.558594 -118.578125 102.355469 -114.210938 102.792969 -109.179688 L 102.816406 -108.914062 L 102.824219 -108.648438 C 103.019531 -103.1875 102.972656 -96.429688 102.6875 -88.367188 C 102.410156 -80.675781 102.273438 -73.359375 102.273438 -66.414062 C 102.273438 -63.417969 101.683594 -59.785156 100.496094 -55.523438 C 99.375 -51.484375 97.238281 -48.332031 94.085938 -46.0625 C 91.097656 -43.910156 87.546875 -42.835938 83.4375 -42.835938 C 77.210938 -42.835938 72.074219 -45.242188 68.027344 -50.054688 C 64.441406 -54.328125 62.648438 -61.363281 62.648438 -71.160156 Z M 62.648438 -71.160156 "/></g></g></g></g><g fill="#ffffff" fill-opacity="1"><g transform="translate(4.756182, 222.924173)"><g><path d="M 161.859375 -121.390625 C 161.859375 -116.554688 161.859375 -110.695312 161.859375 -103.8125 C 161.859375 -96.925781 161.859375 -90.039062 161.859375 -83.15625 C 161.859375 -76.269531 161.859375 -70.503906 161.859375 -65.859375 C 161.859375 -58.597656 160.972656 -52.363281 159.203125 -47.15625 C 157.429688 -41.945312 155.15625 -36.738281 152.375 -31.53125 C 149.945312 -27.070312 146.96875 -23.117188 143.4375 -19.671875 C 139.90625 -16.234375 136.1875 -13.304688 132.28125 -10.890625 C 127.4375 -7.910156 122.550781 -5.394531 117.625 -3.34375 C 112.695312 -1.300781 106.140625 -0.28125 97.953125 -0.28125 C 96.835938 -0.28125 94.367188 -0.28125 90.546875 -0.28125 C 86.734375 -0.28125 82.59375 -0.28125 78.125 -0.28125 C 73.664062 -0.28125 69.710938 -0.28125 66.265625 -0.28125 C 62.828125 -0.28125 61.015625 -0.28125 60.828125 -0.28125 C 53.203125 -0.65625 46.039062 -2.5625 39.34375 -6 C 32.644531 -9.4375 27.25 -13.203125 23.15625 -17.296875 C 20.925781 -19.535156 18.554688 -22.789062 16.046875 -27.0625 C 13.535156 -31.34375 11.441406 -35.804688 9.765625 -40.453125 C 8.085938 -45.109375 7.25 -49.207031 7.25 -52.75 C 7.25 -55.351562 7.25 -59.628906 7.25 -65.578125 C 7.25 -71.535156 7.25 -78.140625 7.25 -85.390625 C 7.25 -92.648438 7.25 -99.628906 7.25 -106.328125 C 7.25 -113.023438 7.25 -118.421875 7.25 -122.515625 C 7.25 -130.515625 8.503906 -137.535156 11.015625 -143.578125 C 13.535156 -149.617188 16.46875 -154.410156 19.8125 -157.953125 C 25.769531 -164.273438 31.398438 -168.503906 36.703125 -170.640625 C 42.003906 -172.785156 48.46875 -174.320312 56.09375 -175.25 C 56.28125 -175.4375 58.328125 -175.484375 62.234375 -175.390625 C 66.140625 -175.296875 70.925781 -175.25 76.59375 -175.25 C 82.269531 -175.25 87.945312 -175.25 93.625 -175.25 C 99.300781 -175.25 103.90625 -175.25 107.4375 -175.25 C 114.695312 -175.25 121.394531 -174.222656 127.53125 -172.171875 C 133.664062 -170.128906 139.25 -166.691406 144.28125 -161.859375 C 149.488281 -157.015625 153.71875 -150.828125 156.96875 -143.296875 C 160.226562 -135.765625 161.859375 -128.460938 161.859375 -121.390625 Z M 73.109375 -71.15625 C 73.109375 -63.90625 74.082031 -59.113281 76.03125 -56.78125 C 77.988281 -54.457031 80.457031 -53.296875 83.4375 -53.296875 C 87.15625 -53.296875 89.476562 -54.96875 90.40625 -58.3125 C 91.34375 -61.664062 91.8125 -64.367188 91.8125 -66.421875 C 91.8125 -73.484375 91.953125 -80.921875 92.234375 -88.734375 C 92.515625 -96.554688 92.5625 -103.070312 92.375 -108.28125 C 92 -112.550781 91.34375 -116.175781 90.40625 -119.15625 C 89.476562 -122.132812 87.15625 -123.625 83.4375 -123.625 C 80.09375 -123.625 77.722656 -122.738281 76.328125 -120.96875 C 74.929688 -119.207031 74.046875 -117.160156 73.671875 -114.828125 C 73.296875 -112.503906 73.109375 -110.597656 73.109375 -109.109375 C 73.109375 -107.253906 73.109375 -104.234375 73.109375 -100.046875 C 73.109375 -95.859375 73.109375 -91.160156 73.109375 -85.953125 C 73.109375 -80.742188 73.109375 -75.8125 73.109375 -71.15625 Z M 73.109375 -71.15625 "/></g></g></g></g></g><g transform="matrix(1, 0, 0, 1, 630, 912)"><g clip-path="url(#4f568062dd)"><g fill="#222222" fill-opacity="1"><g transform="translate(4.614646, 39.402027)"><g><path d="M 11.808594 1.035156 C 9.894531 1.035156 8.1875 0.796875 6.683594 0.324219 C 5.167969 -0.15625 3.902344 -0.789062 2.878906 -1.578125 C 1.851562 -2.371094 1.0625 -3.25 0.507812 -4.210938 L 0.285156 -4.601562 L 3.664062 -8.726562 L 4.777344 -8.726562 L 4.96875 -8.4375 C 5.714844 -7.332031 6.660156 -6.453125 7.804688 -5.796875 C 8.9375 -5.148438 10.273438 -4.828125 11.808594 -4.828125 C 13.058594 -4.828125 13.984375 -5.074219 14.578125 -5.570312 C 15.140625 -6.03125 15.417969 -6.6875 15.417969 -7.527344 C 15.417969 -8.046875 15.328125 -8.472656 15.152344 -8.800781 C 14.980469 -9.117188 14.679688 -9.394531 14.253906 -9.636719 C 13.773438 -9.910156 13.109375 -10.148438 12.257812 -10.351562 L 8.839844 -11.136719 C 6.3125 -11.710938 4.417969 -12.683594 3.15625 -14.054688 C 1.867188 -15.449219 1.222656 -17.246094 1.222656 -19.445312 C 1.222656 -21.082031 1.636719 -22.523438 2.460938 -23.777344 C 3.285156 -25.023438 4.476562 -25.992188 6.035156 -26.675781 C 7.554688 -27.34375 9.367188 -27.675781 11.460938 -27.675781 C 13.59375 -27.675781 15.425781 -27.394531 16.964844 -26.828125 C 18.527344 -26.25 19.851562 -25.359375 20.929688 -24.164062 L 21.285156 -23.769531 L 18.171875 -19.5 L 17.105469 -19.5 L 16.910156 -19.703125 C 16.222656 -20.425781 15.4375 -20.964844 14.550781 -21.324219 C 13.65625 -21.6875 12.628906 -21.871094 11.460938 -21.871094 C 10.148438 -21.871094 9.171875 -21.652344 8.53125 -21.21875 C 8.242188 -21.023438 8.03125 -20.796875 7.894531 -20.539062 C 7.753906 -20.28125 7.6875 -19.984375 7.6875 -19.644531 C 7.6875 -18.992188 7.882812 -18.484375 8.273438 -18.113281 C 8.714844 -17.699219 9.523438 -17.367188 10.707031 -17.113281 L 14.199219 -16.382812 C 16.929688 -15.808594 18.925781 -14.8125 20.1875 -13.402344 C 21.464844 -11.972656 22.101562 -10.121094 22.101562 -7.855469 C 22.101562 -6.070312 21.714844 -4.515625 20.9375 -3.179688 C 20.152344 -1.828125 18.976562 -0.785156 17.40625 -0.046875 C 15.875 0.675781 14.007812 1.035156 11.808594 1.035156 Z M 11.808594 -0.269531 C 13.8125 -0.269531 15.492188 -0.589844 16.851562 -1.230469 C 18.175781 -1.851562 19.160156 -2.71875 19.808594 -3.835938 C 20.464844 -4.96875 20.792969 -6.308594 20.792969 -7.855469 C 20.792969 -9.789062 20.265625 -11.347656 19.210938 -12.53125 C 18.140625 -13.730469 16.382812 -14.585938 13.933594 -15.105469 L 10.433594 -15.835938 C 9.011719 -16.140625 7.996094 -16.582031 7.378906 -17.164062 C 6.714844 -17.792969 6.378906 -18.617188 6.378906 -19.644531 C 6.378906 -20.203125 6.5 -20.707031 6.738281 -21.15625 C 6.980469 -21.601562 7.332031 -21.984375 7.796875 -22.296875 C 8.660156 -22.882812 9.882812 -23.175781 11.460938 -23.175781 C 12.796875 -23.175781 13.992188 -22.964844 15.042969 -22.535156 C 16.101562 -22.105469 17.039062 -21.460938 17.855469 -20.605469 L 17.382812 -20.152344 L 17.382812 -20.808594 L 17.839844 -20.808594 L 17.839844 -20.152344 L 17.3125 -20.539062 L 19.917969 -24.109375 L 20.445312 -23.726562 L 19.960938 -23.289062 C 19.023438 -24.328125 17.875 -25.097656 16.511719 -25.601562 C 15.121094 -26.113281 13.4375 -26.371094 11.460938 -26.371094 C 9.550781 -26.371094 7.914062 -26.074219 6.558594 -25.476562 C 5.238281 -24.898438 4.234375 -24.089844 3.550781 -23.054688 C 2.871094 -22.023438 2.53125 -20.820312 2.53125 -19.445312 C 2.53125 -17.585938 3.058594 -16.082031 4.117188 -14.9375 C 5.195312 -13.769531 6.867188 -12.925781 9.128906 -12.410156 L 12.5625 -11.625 C 13.53125 -11.390625 14.3125 -11.105469 14.902344 -10.773438 C 15.542969 -10.40625 16.011719 -9.957031 16.300781 -9.421875 C 16.582031 -8.902344 16.726562 -8.269531 16.726562 -7.527344 C 16.726562 -6.277344 16.289062 -5.289062 15.414062 -4.5625 C 14.578125 -3.867188 13.375 -3.519531 11.808594 -3.519531 C 10.039062 -3.519531 8.488281 -3.902344 7.15625 -4.664062 C 5.835938 -5.417969 4.746094 -6.433594 3.886719 -7.707031 L 4.429688 -8.074219 L 4.429688 -7.417969 L 3.972656 -7.417969 L 3.972656 -8.074219 L 4.476562 -7.660156 L 1.582031 -4.125 L 1.074219 -4.539062 L 1.640625 -4.863281 C 2.109375 -4.050781 2.789062 -3.300781 3.679688 -2.613281 C 4.578125 -1.917969 5.710938 -1.355469 7.078125 -0.921875 C 8.453125 -0.488281 10.027344 -0.269531 11.808594 -0.269531 Z M 11.808594 -0.269531 "/></g></g></g><g fill="#222222" fill-opacity="1"><g transform="translate(45.979404, 39.402027)"><g><path d="M 25.566406 0.652344 L 19.550781 0.652344 L 17.402344 -5.9375 L 18.023438 -6.140625 L 18.023438 -5.488281 L 7.816406 -5.488281 L 7.816406 -6.140625 L 8.4375 -5.9375 L 6.285156 0.652344 L -0.515625 0.652344 L 9.136719 -27.292969 L 16.828125 -27.292969 L 26.484375 0.652344 Z M 25.566406 -0.652344 L 25.566406 0 L 24.949219 0.214844 L 15.746094 -26.429688 L 16.363281 -26.640625 L 16.363281 -25.988281 L 9.601562 -25.988281 L 9.601562 -26.640625 L 10.222656 -26.429688 L 1.019531 0.214844 L 0.402344 0 L 0.402344 -0.652344 L 5.8125 -0.652344 L 5.8125 0 L 5.191406 -0.203125 L 7.34375 -6.792969 L 18.496094 -6.792969 L 20.648438 -0.203125 L 20.027344 0 L 20.027344 -0.652344 Z M 13.285156 -20.882812 L 9.859375 -10.367188 L 9.238281 -10.570312 L 9.238281 -11.222656 L 16.5625 -11.222656 L 16.5625 -10.570312 L 15.945312 -10.367188 L 12.5 -20.878906 L 13.121094 -21.082031 L 13.121094 -20.429688 L 12.664062 -20.429688 L 12.664062 -21.082031 Z M 12.191406 -21.738281 L 13.59375 -21.738281 L 17.464844 -9.914062 L 8.339844 -9.914062 L 12.042969 -21.285156 Z M 12.191406 -21.738281 "/></g></g></g><g fill="#222222" fill-opacity="1"><g transform="translate(90.423172, 39.402027)"><g><path d="M 8.566406 0.652344 L 2.808594 0.652344 L 2.808594 -27.292969 L 9.855469 -27.292969 L 20.746094 -9.820312 L 20.191406 -9.476562 L 20.089844 -10.121094 L 20.566406 -10.195312 L 20.664062 -9.546875 L 20.011719 -9.546875 L 20.011719 -27.292969 L 26.382812 -27.292969 L 26.382812 0.652344 L 19.972656 0.652344 L 8.464844 -17.988281 L 9.019531 -18.332031 L 9.125 -17.6875 L 8.667969 -17.613281 L 8.566406 -18.257812 L 9.21875 -18.257812 L 9.21875 0.652344 Z M 8.566406 -0.652344 L 8.566406 0 L 7.910156 0 L 7.910156 -18.816406 L 9.347656 -19.046875 L 20.890625 -0.34375 L 20.335938 0 L 20.335938 -0.652344 L 25.730469 -0.652344 L 25.730469 0 L 25.078125 0 L 25.078125 -26.640625 L 25.730469 -26.640625 L 25.730469 -25.988281 L 20.664062 -25.988281 L 20.664062 -26.640625 L 21.316406 -26.640625 L 21.316406 -8.988281 L 19.863281 -8.765625 L 8.941406 -26.296875 L 9.492188 -26.640625 L 9.492188 -25.988281 L 3.460938 -25.988281 L 3.460938 -26.640625 L 4.117188 -26.640625 L 4.117188 0 L 3.460938 0 L 3.460938 -0.652344 Z M 8.566406 -0.652344 "/></g></g></g><g fill="#222222" fill-opacity="1"><g transform="translate(138.10992, 39.402027)"><g><path d="M 22.011719 -26.640625 L 22.011719 -21.558594 L 13.667969 -21.558594 L 13.667969 -22.214844 L 14.320312 -22.214844 L 14.320312 0.652344 L 7.765625 0.652344 L 7.765625 -22.214844 L 8.417969 -22.214844 L 8.417969 -21.558594 L 0.0742188 -21.558594 L 0.0742188 -27.292969 L 22.011719 -27.292969 Z M 20.703125 -26.640625 L 21.355469 -26.640625 L 21.355469 -25.988281 L 0.730469 -25.988281 L 0.730469 -26.640625 L 1.382812 -26.640625 L 1.382812 -22.214844 L 0.730469 -22.214844 L 0.730469 -22.867188 L 9.070312 -22.867188 L 9.070312 0 L 8.417969 0 L 8.417969 -0.652344 L 13.667969 -0.652344 L 13.667969 0 L 13.011719 0 L 13.011719 -22.867188 L 21.355469 -22.867188 L 21.355469 -22.214844 L 20.703125 -22.214844 Z M 20.703125 -26.640625 "/></g></g></g><g fill="#222222" fill-opacity="1"><g transform="translate(178.673042, 39.402027)"><g><path d="M 25.566406 0.652344 L 19.550781 0.652344 L 17.402344 -5.9375 L 18.023438 -6.140625 L 18.023438 -5.488281 L 7.816406 -5.488281 L 7.816406 -6.140625 L 8.4375 -5.9375 L 6.285156 0.652344 L -0.515625 0.652344 L 9.136719 -27.292969 L 16.828125 -27.292969 L 26.484375 0.652344 Z M 25.566406 -0.652344 L 25.566406 0 L 24.949219 0.214844 L 15.746094 -26.429688 L 16.363281 -26.640625 L 16.363281 -25.988281 L 9.601562 -25.988281 L 9.601562 -26.640625 L 10.222656 -26.429688 L 1.019531 0.214844 L 0.402344 0 L 0.402344 -0.652344 L 5.8125 -0.652344 L 5.8125 0 L 5.191406 -0.203125 L 7.34375 -6.792969 L 18.496094 -6.792969 L 20.648438 -0.203125 L 20.027344 0 L 20.027344 -0.652344 Z M 13.285156 -20.882812 L 9.859375 -10.367188 L 9.238281 -10.570312 L 9.238281 -11.222656 L 16.5625 -11.222656 L 16.5625 -10.570312 L 15.945312 -10.367188 L 12.5 -20.878906 L 13.121094 -21.082031 L 13.121094 -20.429688 L 12.664062 -20.429688 L 12.664062 -21.082031 Z M 12.191406 -21.738281 L 13.59375 -21.738281 L 17.464844 -9.914062 L 8.339844 -9.914062 L 12.042969 -21.285156 Z M 12.191406 -21.738281 "/></g></g></g><g fill="#222222" fill-opacity="1"><g transform="translate(223.11681, 39.402027)"><g><path d="M 2.808594 -27.292969 L 9.382812 -27.292969 L 9.382812 0.652344 L 2.808594 0.652344 Z M 4.117188 -25.988281 L 4.117188 -0.652344 L 8.074219 -0.652344 L 8.074219 -25.988281 Z M 4.117188 -25.988281 "/></g></g></g><g fill="#ffffff" fill-opacity="1"><g transform="translate(4.614646, 39.402027)"><g><path d="M 11.8125 0.375 C 9.957031 0.375 8.3125 0.148438 6.875 -0.296875 C 5.4375 -0.753906 4.238281 -1.351562 3.28125 -2.09375 C 2.320312 -2.832031 1.585938 -3.644531 1.078125 -4.53125 L 3.96875 -8.078125 L 4.421875 -8.078125 C 5.222656 -6.878906 6.238281 -5.925781 7.46875 -5.21875 C 8.707031 -4.519531 10.15625 -4.171875 11.8125 -4.171875 C 13.21875 -4.171875 14.273438 -4.46875 14.984375 -5.0625 C 15.703125 -5.65625 16.0625 -6.476562 16.0625 -7.53125 C 16.0625 -8.15625 15.945312 -8.679688 15.71875 -9.109375 C 15.488281 -9.535156 15.109375 -9.898438 14.578125 -10.203125 C 14.046875 -10.503906 13.320312 -10.765625 12.40625 -10.984375 L 8.984375 -11.765625 C 6.585938 -12.316406 4.800781 -13.222656 3.625 -14.484375 C 2.457031 -15.753906 1.875 -17.40625 1.875 -19.4375 C 1.875 -20.945312 2.25 -22.269531 3 -23.40625 C 3.757812 -24.550781 4.859375 -25.4375 6.296875 -26.0625 C 7.734375 -26.695312 9.453125 -27.015625 11.453125 -27.015625 C 13.503906 -27.015625 15.257812 -26.742188 16.71875 -26.203125 C 18.1875 -25.660156 19.425781 -24.832031 20.4375 -23.71875 L 17.84375 -20.15625 L 17.375 -20.15625 C 16.625 -20.9375 15.765625 -21.523438 14.796875 -21.921875 C 13.828125 -22.316406 12.710938 -22.515625 11.453125 -22.515625 C 10.015625 -22.515625 8.914062 -22.257812 8.15625 -21.75 C 7.40625 -21.238281 7.03125 -20.535156 7.03125 -19.640625 C 7.03125 -18.804688 7.296875 -18.140625 7.828125 -17.640625 C 8.359375 -17.140625 9.269531 -16.75 10.5625 -16.46875 L 14.0625 -15.734375 C 16.65625 -15.191406 18.53125 -14.265625 19.6875 -12.953125 C 20.851562 -11.648438 21.4375 -9.953125 21.4375 -7.859375 C 21.4375 -6.191406 21.078125 -4.738281 20.359375 -3.5 C 19.648438 -2.269531 18.570312 -1.316406 17.125 -0.640625 C 15.675781 0.0351562 13.90625 0.375 11.8125 0.375 Z M 11.8125 0.375 "/></g></g></g><g fill="#ffffff" fill-opacity="1"><g transform="translate(45.979404, 39.402027)"><g><path d="M 25.5625 0 L 20.015625 0 L 18.015625 -6.140625 L 7.8125 -6.140625 L 5.8125 0 L 0.40625 0 L 9.59375 -26.640625 L 16.359375 -26.640625 Z M 12.65625 -21.078125 L 9.234375 -10.5625 L 16.5625 -10.5625 L 13.125 -21.078125 Z M 12.65625 -21.078125 "/></g></g></g><g fill="#ffffff" fill-opacity="1"><g transform="translate(90.423172, 39.402027)"><g><path d="M 8.5625 0 L 3.46875 0 L 3.46875 -26.640625 L 9.484375 -26.640625 L 20.1875 -9.46875 L 20.65625 -9.546875 L 20.65625 -26.640625 L 25.71875 -26.640625 L 25.71875 0 L 20.328125 0 L 9.015625 -18.328125 L 8.5625 -18.25 Z M 8.5625 0 "/></g></g></g><g fill="#ffffff" fill-opacity="1"><g transform="translate(138.10992, 39.402027)"><g><path d="M 21.359375 -26.640625 L 21.359375 -22.203125 L 13.671875 -22.203125 L 13.671875 0 L 8.421875 0 L 8.421875 -22.203125 L 0.734375 -22.203125 L 0.734375 -26.640625 Z M 21.359375 -26.640625 "/></g></g></g><g fill="#ffffff" fill-opacity="1"><g transform="translate(178.673042, 39.402027)"><g><path d="M 25.5625 0 L 20.015625 0 L 18.015625 -6.140625 L 7.8125 -6.140625 L 5.8125 0 L 0.40625 0 L 9.59375 -26.640625 L 16.359375 -26.640625 Z M 12.65625 -21.078125 L 9.234375 -10.5625 L 16.5625 -10.5625 L 13.125 -21.078125 Z M 12.65625 -21.078125 "/></g></g></g><g fill="#ffffff" fill-opacity="1"><g transform="translate(223.11681, 39.402027)"><g><path d="M 8.734375 0 L 3.46875 0 L 3.46875 -26.640625 L 8.734375 -26.640625 Z M 8.734375 0 "/></g></g></g></g></g></svg>